# xmcd
#
# Track frame offsets:
#	150
#	9560
#	23805
#	34660
#	49620
#	60530
#	74150
#	81375
#	91602
#	104037
#	114862
#	127167
#	137247
#
# Disc length: 2003 seconds
#
# Revision: 1
# Processed by: cddbd v1.5.1PL0 Copyright (c) Steve Scherf et al.
# Submitted via: audiograbber 1.83.01
#
DISCID=b207d10d
DTITLE=Mazzaropi - Os Grandes Sucesso - Vol. 1
DYEAR=1900
DGENRE=Caipira
TTITLE0=Fogo no rancho (Jeca Tatu)
TTITLE1=Dor da saudade (Casinha pequenina)
TTITLE2=Azar é festa (Jeca Tatu)
TTITLE3=Meu burrinho (O Corintiano)
TTITLE4=Sopro do vento (Tristeza do Jeca)
TTITLE5=Ingratidão (Meu Japão Brasileiro)
TTITLE6=Lamparina do nordeste (O Lamparina)
TTITLE7=Alma solitária (O Lamparina)
TTITLE8=Jeca Magoado (O Jeca e a Freira)
TTITLE9=Coração amigo (As aventuras de Pedro Malazartes)
TTITLE10=Jóia do sertão (Zé do Periquito)
TTITLE11=O Lingüiceiro (O vendedor de lingüiça)
TTITLE12=Exemplo de humildade (Jeca contra o capeta)
EXTD=
EXTT0=
EXTT1=
EXTT2=
EXTT3=
EXTT4=
EXTT5=
EXTT6=
EXTT7=
EXTT8=
EXTT9=
EXTT10=
EXTT11=
EXTT12=
PLAYORDER=
